<svg width="24" height="24" viewBox="0 0 24 24" fill="none" xmlns="http://www.w3.org/2000/svg">
<path d="M8.3475 5.16749L8.85 2.99999H14.85L13.35 9.74999H17.25L15.3825 12.1875L16.455 13.26L19.3575 9.45749C19.4363 9.35092 19.4854 9.22537 19.4999 9.09362C19.5144 8.96188 19.4937 8.82865 19.44 8.70749C19.3826 8.57193 19.2865 8.45627 19.1638 8.37491C19.0411 8.29356 18.8972 8.25011 18.75 8.24999H15.1875L16.5 2.41499C16.5248 2.30431 16.5242 2.18943 16.4983 2.07901C16.4723 1.96858 16.4216 1.86549 16.35 1.77749C16.2778 1.68847 16.1862 1.61718 16.0822 1.56907C15.9782 1.52097 15.8646 1.49734 15.75 1.49999H8.25C8.07766 1.49539 7.90899 1.5503 7.77239 1.65548C7.63578 1.76066 7.53959 1.9097 7.5 2.07749L7.095 3.91499L8.3475 5.16749ZM22.5 21.4425L15.5175 14.46L14.4525 13.3875L7.95 6.89249L6.6975 5.63999L2.5575 1.49999L1.5 2.55749L6.3 7.36499L5.25 11.8275C5.22353 11.9393 5.22311 12.0557 5.24875 12.1677C5.27439 12.2796 5.32541 12.3842 5.39789 12.4734C5.47036 12.5625 5.56234 12.6338 5.66674 12.6818C5.77114 12.7297 5.88516 12.7531 6 12.75H9.6225L8.25 21.6375C8.22522 21.8022 8.25601 21.9705 8.33749 22.1159C8.41897 22.2612 8.54652 22.3752 8.7 22.44C8.79533 22.4787 8.89712 22.4991 9 22.5C9.11454 22.4997 9.22749 22.4732 9.3302 22.4225C9.4329 22.3718 9.52263 22.2983 9.5925 22.2075L14.6025 15.66L21.4425 22.5L22.5 21.4425ZM6.945 11.25L7.5525 8.60999L10.1925 11.25H6.945ZM10.185 18.96L11.25 12.2775L13.5 14.5875L10.185 18.96Z" fill="white"/>
</svg>
