<svg width="24" height="24" viewBox="0 0 24 24" fill="none" xmlns="http://www.w3.org/2000/svg">
<path d="M21.5344 10.2844L17.0344 14.7844C16.8904 14.922 16.6992 14.9992 16.5 15C16.4005 14.9996 16.3019 14.9805 16.2094 14.9437C16.0729 14.8864 15.9564 14.7899 15.8747 14.6664C15.7929 14.543 15.7495 14.3981 15.75 14.25V10.5C13.9207 10.4985 12.1429 11.1057 10.6967 12.226C9.25056 13.3463 8.21827 14.9159 7.7625 16.6875C7.71927 16.8485 7.62425 16.9909 7.49209 17.0925C7.35993 17.1942 7.19799 17.2495 7.03125 17.25L6.84375 17.2219C6.6529 17.1712 6.48975 17.0472 6.3897 16.877C6.28966 16.7067 6.26079 16.5039 6.30938 16.3125C6.84831 14.2188 8.06849 12.3638 9.77771 11.0399C11.4869 9.71599 13.588 8.99833 15.75 8.99999V5.24999C15.7495 5.10193 15.7929 4.95703 15.8747 4.83358C15.9564 4.71012 16.0729 4.61362 16.2094 4.55624C16.3479 4.50221 16.4989 4.4885 16.6449 4.51671C16.7909 4.54491 16.9259 4.61387 17.0344 4.71562L21.5344 9.21562C21.6752 9.35781 21.7542 9.54986 21.7542 9.74999C21.7542 9.95013 21.6752 10.1422 21.5344 10.2844ZM18 19.5H3.75V8.24999C3.75 8.05108 3.67098 7.86032 3.53033 7.71966C3.38968 7.57901 3.19891 7.49999 3 7.49999C2.80109 7.49999 2.61032 7.57901 2.46967 7.71966C2.32902 7.86032 2.25 8.05108 2.25 8.24999V19.5C2.25 19.8978 2.40804 20.2794 2.68934 20.5607C2.97064 20.842 3.35218 21 3.75 21H18C18.1989 21 18.3897 20.921 18.5303 20.7803C18.671 20.6397 18.75 20.4489 18.75 20.25C18.75 20.0511 18.671 19.8603 18.5303 19.7197C18.3897 19.579 18.1989 19.5 18 19.5Z" fill="#003366"/>
</svg>
